 <svg version="1.0" xmlns="http://www.w3.org/2000/svg" width="700.000000pt" height="700.000000pt" viewBox="0 0 700.000000 700.000000" preserveAspectRatio="xMidYMid meet">
<metadata>
Created by potrace 1.12, written by Peter Selinger 2001-2015
</metadata>
<g transform="translate(0.000000,700.000000) scale(0.100000,-0.100000)" fill="#000000" stroke="none">
<path d="M2605 3500 c0 -426 1 -601 2 -387 2 213 2 561 0 775 -1 213 -2 38 -2
-388z"></path>
<path d="M4887 3744 c-14 -14 -7 -53 11 -56 35 -8 53 3 50 31 -2 19 -9 27 -28
29 -14 2 -29 0 -33 -4z"></path>
<path d="M5290 3700 c-18 -4 -26 -14 -28 -33 -2 -15 -10 -27 -18 -27 -19 0
-18 -46 1 -54 12 -4 15 -24 15 -93 0 -113 14 -138 72 -130 22 3 42 8 45 10 11
12 -10 46 -30 49 -21 3 -22 8 -22 83 0 75 1 80 23 83 33 5 31 52 -2 52 -21 0
-25 6 -28 33 -3 30 -6 32 -28 27z"></path>
<path d="M4182 3638 c-46 -12 -72 -58 -72 -129 0 -74 16 -116 51 -134 33 -18
65 -19 108 -4 35 12 35 13 21 40 -9 15 -15 17 -30 9 -10 -5 -26 -10 -34 -10
-22 0 -56 36 -56 60 0 18 7 20 65 20 61 0 65 1 71 26 7 28 -10 99 -27 109 -24
16 -67 21 -97 13z m64 -72 c8 -34 -2 -46 -36 -46 -36 0 -43 11 -30 44 13 36
57 36 66 2z"></path>
<path d="M3150 3450 l0 -190 31 0 c31 0 31 0 27 50 l-3 50 38 0 c77 0 119 82
102 196 -3 25 -15 54 -26 65 -23 23 -81 25 -99 4 -7 -8 -16 -15 -21 -15 -5 0
-9 7 -9 15 0 8 -9 15 -20 15 -19 0 -20 -7 -20 -190z m118 128 c32 -41 19 -151
-19 -163 -31 -10 -43 9 -45 73 -3 79 32 129 64 90z"></path>
<path d="M3427 3628 c-42 -33 -60 -138 -33 -203 21 -49 56 -69 112 -62 52 5
67 16 58 40 -5 13 -14 16 -43 11 -43 -6 -69 10 -73 46 -3 24 -1 25 66 28 l68
3 -4 56 c-4 43 -10 61 -28 75 -26 21 -98 24 -123 6z m91 -76 c3 -33 3 -33 -35
-30 -32 2 -37 6 -35 23 6 30 23 46 46 43 16 -2 22 -11 24 -36z"></path>
<path d="M3630 3450 l0 -190 30 0 c30 0 30 1 30 53 l0 54 30 -5 c69 -10 115
60 108 164 -5 81 -26 114 -75 114 -20 0 -45 -7 -55 -16 -16 -16 -18 -16 -24 0
-3 9 -15 16 -25 16 -18 0 -19 -10 -19 -190z m119 126 c45 -54 3 -193 -49 -161
-14 9 -13 148 2 163 16 16 33 15 47 -2z"></path>
<path d="M3870 3450 l0 -190 30 0 c29 0 30 1 30 50 l0 50 36 0 c75 0 105 43
105 150 0 66 -11 107 -35 122 -19 13 -71 9 -94 -8 -20 -14 -22 -14 -22 0 0 10
-9 16 -25 16 l-25 0 0 -190z m130 121 c32 -60 -5 -181 -47 -155 -21 13 -31
121 -13 154 14 25 46 26 60 1z"></path>
<path d="M4350 3505 l0 -135 30 0 30 0 0 86 c0 96 10 124 44 124 19 0 25 6 28
30 4 27 2 30 -24 30 -16 0 -31 -7 -34 -15 -4 -8 -10 -15 -15 -15 -5 0 -9 7 -9
15 0 9 -9 15 -25 15 l-25 0 0 -135z"></path>
<path d="M4518 3505 l-3 -135 30 0 30 0 -3 88 c-3 75 -1 92 16 112 17 21 22
22 36 11 13 -11 16 -34 16 -112 l0 -99 30 0 30 0 0 93 c0 105 14 141 47 121
15 -9 18 -27 21 -113 l3 -101 29 0 30 0 0 113 c0 132 -10 157 -65 157 -18 0
-41 -7 -50 -16 -15 -15 -17 -15 -34 0 -23 21 -69 21 -93 0 -16 -16 -18 -16
-24 0 -3 9 -14 16 -25 16 -16 0 -18 -12 -21 -135z"></path>
<path d="M4890 3505 l0 -135 30 0 30 0 0 135 0 135 -30 0 -30 0 0 -135z"></path>
<path d="M5000 3505 l0 -135 33 0 32 0 -3 93 c-3 84 -1 95 18 112 16 15 25 17
38 9 14 -9 18 -30 20 -113 l3 -101 29 0 30 0 0 113 c0 134 -10 157 -67 157
-20 0 -45 -7 -55 -16 -16 -16 -18 -16 -24 0 -3 9 -17 16 -30 16 l-24 0 0 -135z"></path>
</g>
</svg>