<?xml version="1.0" standalone="no"?>
<!DOCTYPE svg PUBLIC "-//W3C//DTD SVG 20010904//EN"
 "http://www.w3.org/TR/2001/REC-SVG-20010904/DTD/svg10.dtd">
<svg version="1.0" xmlns="http://www.w3.org/2000/svg"
 width="300.000000pt" height="300.000000pt" viewBox="0 0 300.000000 300.000000"
 preserveAspectRatio="xMidYMid meet">
<metadata>
Created by potrace 1.10, written by Peter Selinger 2001-2011
</metadata>
<g transform="translate(0.000000,300.000000) scale(0.100000,-0.100000)"
fill="#000000" stroke="none">
<path d="M1107 1833 c-10 -9 -9 -661 1 -666 4 -3 7 147 7 334 0 186 0 339 -1
339 0 0 -4 -3 -7 -7z"/>
<path d="M1131 1745 c-1 -49 -5 -125 -7 -167 -3 -47 -2 -78 4 -78 14 0 18 67
12 210 -6 123 -6 124 -9 35z"/>
<path d="M450 1767 c0 -7 7 -23 16 -35 14 -21 14 -25 -1 -48 -19 -29 -16 -38
9 -28 30 11 38 50 19 89 -16 34 -43 48 -43 22z"/>
<path d="M560 1770 c0 -5 5 -20 11 -34 9 -20 9 -29 -1 -41 -17 -20 -11 -25 18
-14 25 9 28 34 10 74 -11 24 -38 35 -38 15z"/>
<path d="M660 1774 c0 -3 8 -19 17 -35 14 -24 15 -33 5 -49 -16 -26 -15 -30 8
-30 28 0 37 44 17 86 -9 19 -23 34 -32 34 -8 0 -15 -3 -15 -6z"/>
<path d="M485 1636 c-63 -27 -65 -34 -65 -191 0 -79 3 -151 6 -160 4 -9 25
-25 48 -37 91 -47 259 -15 272 52 5 23 12 30 30 30 91 0 133 110 61 163 -14
11 -40 20 -57 20 -28 0 -30 3 -30 37 0 40 -25 71 -73 89 -39 15 -156 13 -192
-3z m195 -34 c45 -22 50 -53 13 -78 -39 -27 -176 -27 -217 -1 -63 41 0 97 109
97 37 0 73 -7 95 -18z m-160 -155 c0 -15 -7 -30 -15 -33 -11 -5 -15 -22 -15
-65 l0 -59 45 0 45 0 0 55 c0 44 -4 57 -20 67 -11 7 -20 22 -20 34 0 19 7 22
65 26 36 3 76 13 90 22 13 9 26 16 27 16 2 0 1 -46 0 -102 -3 -74 -8 -108 -19
-120 -24 -27 -110 -41 -170 -28 -74 16 -81 28 -85 146 l-3 100 37 -15 c31 -13
38 -21 38 -44z m313 12 c9 -12 17 -28 17 -36 0 -23 -47 -63 -75 -63 -24 0 -25
2 -25 66 l0 67 33 -7 c17 -3 40 -16 50 -27z m-290 -66 c3 -5 7 -23 9 -42 3
-30 0 -35 -19 -36 -20 -1 -23 3 -23 35 0 20 3 40 7 43 9 9 21 9 26 0z"/>
<path d="M545 1585 c-5 -2 -22 -6 -37 -9 -35 -8 -36 -33 -2 -46 58 -22 191 -6
182 23 -8 23 -104 45 -143 32z m25 -25 c0 -6 9 -5 21 2 17 10 23 10 26 1 3 -7
14 -13 26 -14 21 0 21 -1 2 -9 -41 -18 -157 -5 -126 14 6 4 19 5 27 2 9 -3 12
-1 9 4 -3 6 -1 10 4 10 6 0 11 -5 11 -10z"/>
<path d="M1352 1509 l2 -114 3 108 c4 103 5 107 26 107 31 0 44 -11 57 -44 16
-42 2 -94 -31 -119 -20 -14 -27 -27 -23 -39 5 -17 -5 -23 -31 -18 -5 1 -5 -4
1 -10 14 -14 58 5 49 20 -3 5 7 20 22 34 22 20 27 36 31 83 5 72 -9 92 -66
100 l-42 6 2 -114z"/>
<path d="M1476 1598 c-3 -13 -6 -62 -6 -109 0 -70 4 -91 19 -110 17 -21 21
-22 50 -10 36 15 43 50 11 58 -19 5 -19 6 -4 18 19 13 28 45 13 45 -5 0 -9 -7
-9 -15 0 -8 -6 -15 -14 -15 -23 0 -27 -38 -5 -42 33 -5 26 -23 -9 -26 l-33 -3
3 108 c3 105 4 108 27 111 33 5 53 -17 23 -24 -18 -5 -22 -13 -22 -50 0 -50
14 -60 17 -13 1 18 9 39 18 49 29 32 13 50 -45 50 -20 0 -29 -6 -34 -22z"/>
<path d="M1587 1613 c-4 -3 -7 -55 -7 -114 0 -85 3 -111 16 -123 14 -15 17
-14 35 8 10 13 19 28 19 32 0 4 10 18 21 30 26 28 33 130 10 157 -13 17 -81
24 -94 10z m71 -19 c30 -21 32 -104 2 -134 -11 -11 -24 -20 -29 -20 -5 0 -11
-11 -13 -25 -2 -14 -6 -25 -10 -25 -5 0 -8 2 -8 5 0 3 0 52 0 110 0 94 2 105
18 105 10 0 28 -7 40 -16z"/>
<path d="M1621 1543 c1 -37 1 -38 9 -8 l8 30 1 -27 c0 -15 -3 -30 -9 -33 -5
-3 -10 -13 -10 -22 0 -13 3 -13 15 -3 11 9 15 26 13 53 -4 54 -28 63 -27 10z"/>
<path d="M1715 1608 c-3 -8 -4 -63 -3 -124 3 -101 4 -109 23 -109 11 0 25 10
31 23 6 13 21 34 33 48 28 32 30 133 4 155 -24 20 -82 24 -88 7z m69 -11 c11
-8 20 -31 23 -60 5 -42 3 -49 -26 -77 -17 -17 -31 -40 -31 -51 0 -10 -7 -19
-15 -19 -12 0 -15 18 -15 103 0 57 3 107 7 110 10 11 38 8 57 -6z"/>
<path d="M1751 1524 c2 -52 3 -56 16 -38 16 22 13 86 -4 92 -10 3 -13 -12 -12
-54z m16 4 c-3 -8 -6 -5 -6 6 -1 11 2 17 5 13 3 -3 4 -12 1 -19z"/>
<path d="M1847 1613 c-11 -10 -8 -213 3 -234 8 -15 17 -18 38 -13 38 9 54 25
42 44 -8 13 -10 12 -10 -2 0 -14 -8 -18 -35 -18 l-36 0 3 107 3 108 30 6 30 7
-31 1 c-17 0 -34 -2 -37 -6z"/>
<path d="M1946 1594 c-9 -46 -5 -194 5 -194 5 0 9 47 9 105 0 96 2 105 19 105
37 0 63 -33 63 -78 0 -22 -5 -50 -11 -60 -7 -12 -7 -31 -1 -51 11 -40 -11 -43
-27 -3 l-11 27 -1 -27 c-1 -21 -6 -28 -21 -28 -13 0 -18 -5 -14 -15 4 -11 11
-12 23 -5 11 6 22 5 28 -1 6 -6 15 -5 25 3 12 10 18 38 23 108 8 112 0 129
-62 137 -39 5 -41 4 -47 -23z"/>
<path d="M2075 1588 c-3 -18 -5 -73 -3 -123 l3 -90 60 0 c89 -1 86 -4 84 96
-2 99 -7 139 -20 139 -4 0 -6 -9 -4 -20 2 -11 5 -59 6 -107 2 -70 -1 -89 -12
-91 -11 -2 -14 7 -11 40 5 49 -14 43 -20 -6 -5 -46 -25 -42 -34 6 l-8 43 -6
-44 c-3 -25 -11 -46 -17 -49 -15 -4 -16 49 -4 166 7 72 -3 101 -14 40z"/>
<path d="M2146 1558 c-10 -36 -13 -65 -8 -70 5 -5 13 13 20 44 6 29 14 61 17
71 4 9 3 17 -2 17 -5 0 -17 -28 -27 -62z"/>
<path d="M2235 1600 c-9 -27 -3 -190 7 -196 4 -3 8 42 8 100 0 74 4 106 13
109 7 3 6 6 -5 6 -9 1 -20 -8 -23 -19z"/>
<path d="M2312 1508 l2 -113 3 105 c3 68 8 107 16 112 8 5 7 8 -5 8 -16 0 -18
-11 -16 -112z"/>
<path d="M2350 1603 c0 -10 5 -25 10 -33 8 -12 10 -9 10 12 0 15 -4 30 -10 33
-5 3 -10 -2 -10 -12z"/>
<path d="M2378 1583 c-2 -55 2 -87 13 -98 6 -6 7 15 3 54 -6 49 -4 65 7 72 11
7 11 9 -3 9 -14 0 -18 -9 -20 -37z"/>
<path d="M2450 1603 c0 -12 3 -14 8 -6 4 6 25 13 47 16 40 4 40 4 -7 5 -40 2
-48 -1 -48 -15z"/>
<path d="M1921 1598 c-1 -11 -9 -18 -21 -18 -17 0 -20 -7 -20 -45 0 -48 14
-63 18 -18 1 14 9 34 18 44 9 10 14 26 11 36 -4 16 -5 16 -6 1z"/>
<path d="M2117 1578 c8 -46 13 -48 13 -5 0 21 -4 37 -10 37 -5 0 -7 -14 -3
-32z"/>
<path d="M2281 1590 c-1 -14 -2 -64 -1 -112 1 -84 0 -88 -21 -88 -18 0 -19 -3
-9 -15 10 -13 14 -13 26 0 11 11 14 39 11 127 -1 62 -4 102 -6 88z"/>
<path d="M2420 1501 c0 -128 -10 -139 -44 -50 l-21 54 -3 -57 c-2 -43 -7 -58
-17 -58 -8 0 -15 -4 -15 -10 0 -26 50 -3 51 24 l0 21 9 -21 c12 -31 26 -37 44
-18 17 16 18 30 16 131 -1 53 1 62 14 57 13 -5 16 -23 16 -90 0 -49 4 -84 10
-84 6 0 10 37 10 90 0 77 -2 90 -17 90 -9 0 -25 7 -35 17 -17 15 -18 12 -18
-96z"/>
<path d="M2550 1595 c0 -8 -7 -15 -15 -15 -12 0 -15 -17 -15 -94 0 -90 -1 -95
-22 -99 -20 -3 -21 -4 -5 -11 34 -16 47 10 47 100 0 45 4 85 9 88 12 8 21 46
10 46 -5 0 -9 -7 -9 -15z"/>
<path d="M1393 1541 c3 -22 0 -44 -6 -50 -8 -8 -6 -11 6 -11 20 0 32 39 23 75
-10 41 -29 30 -23 -14z"/>
<path d="M1988 1575 c-3 -4 -2 -20 4 -36 7 -21 7 -33 -1 -43 -8 -10 -9 -16 -1
-21 10 -6 30 33 30 59 0 17 -24 48 -32 41z"/>
<path d="M1910 1481 c0 -12 -7 -21 -15 -21 -8 0 -15 -9 -15 -20 0 -13 6 -20
18 -19 11 0 13 2 4 6 -10 4 -8 9 7 20 22 15 27 38 11 48 -5 3 -10 -3 -10 -14z"/>
<path d="M1120 1476 c0 -8 5 -18 10 -21 6 -3 10 1 10 9 0 8 -4 18 -10 21 -5 3
-10 -1 -10 -9z"/>
<path d="M1121 1340 c0 -63 3 -99 9 -95 13 8 13 195 1 195 -6 0 -10 -45 -10
-100z"/>
<path d="M1127 1224 c-4 -4 -7 -14 -7 -23 0 -11 3 -12 11 -4 6 6 10 16 7 23
-2 6 -7 8 -11 4z"/>
</g>
</svg>
